<svg width="90.000000" height="90.000000" viewBox="0 0 90 90" fill="none" xmlns="http://www.w3.org/2000/svg" xmlns:xlink="http://www.w3.org/1999/xlink">
	<desc>
			Created with Pixso.
	</desc>
	<path id="路径" d="M45.312 70.1545C27.5684 70.1545 13.1517 55.7378 13.1517 37.9941C13.1517 20.2505 27.5684 5.8338 45.312 5.8338C63.0556 5.8338 77.4724 20.2505 77.4724 37.9941C77.4724 55.7378 63.0556 70.1545 45.312 70.1545Z" fill-rule="evenodd" fill="#3CDB42"/>
	<path id="路径" d="M45.312 53.6783C36.5986 53.6783 29.6279 46.7075 29.6279 37.9941C29.6279 29.2807 36.5986 22.31 45.312 22.31C54.0254 22.31 60.9961 29.2807 60.9961 37.9941C60.9961 46.7076 54.0254 53.6783 45.312 53.6783Z" fill-rule="evenodd" fill="#5CF162"/>
	<g opacity="0.800000">
		<path id="路径" d="M5.8642 69.6785C5.70578 68.2527 6.18105 66.8268 6.81475 65.5594L16.4138 48.881C17.7212 46.6095 21.0369 46.7257 22.182 49.0832C25.5089 56.0539 32.0043 61.1236 39.4503 62.8662C41.6409 63.3356 42.7372 65.8048 41.6161 67.7445L33.9054 81.0851C31.8459 84.5705 27.2515 85.8379 23.7662 83.7783C22.4988 82.9862 21.5482 81.8772 20.7561 80.6098L18.6965 76.3324L13.7854 76.6492C9.6664 76.9661 6.18105 73.7976 5.8642 69.6785Z" fill-rule="evenodd" fill="#0DE915"/>
	</g>
	<g opacity="0.800000">
		<path id="路径" d="M59.7285 84.0954C58.4611 83.4617 57.3521 82.3527 56.56 81.0853L48.8493 67.7447C47.7282 65.8051 48.8244 63.3359 51.015 62.8664C58.6195 61.1238 64.9564 56.0542 68.2834 49.0835C69.4284 46.726 72.7442 46.6097 74.0515 48.8812L83.6506 65.5597C85.7101 69.045 84.4427 73.6394 80.9574 75.6989C79.69 76.491 78.2641 76.8079 76.8383 76.6495L71.9271 76.3326L69.7092 80.7685C67.9666 84.4123 63.3723 85.9965 59.7285 84.0954Z" fill-rule="evenodd" fill="#0DE915"/>
	</g>
	<defs/>
</svg>
