<svg width="180.000000" height="180.000000" viewBox="0 0 180 180" fill="none" xmlns="http://www.w3.org/2000/svg" xmlns:xlink="http://www.w3.org/1999/xlink">
	<desc>
			Created with Pixso.
	</desc>
	<g clip-path="url(#clip3_23)">
		<path id="path" d="M150.606 61.281L114.3 61.281C107.172 57.744 108.018 53.406 110.205 42.201C112.842 28.71 108.603 12.591 95.562 11.817C82.521 11.043 77.706 17.469 71.667 38.61C65.628 59.742 48.285 67.14 48.285 67.14L48.285 167.004L144.216 167.004C153.378 167.004 161.028 160.02 161.856 150.894L168.237 80.595C169.182 70.218 161.019 61.281 150.606 61.281Z" fill-rule="nonzero" fill="url(#paint_linear_3_24_0)"/>
		<path id="path" d="M30.969 166.941L56.88 166.941C63.045 166.941 68.04 161.946 68.04 155.781L68.04 76.725C68.04 70.56 63.045 65.565 56.88 65.565L30.969 65.565C21.024 65.565 12.969 73.62 12.969 83.565L12.969 148.941C12.969 158.886 21.024 166.941 30.969 166.941Z" fill-rule="nonzero" fill="url(#paint_linear_3_25_0)"/>
		<path id="path" d="M56.88 166.941C63.045 166.941 68.04 161.946 68.04 155.781L68.04 76.725C68.04 70.56 63.045 65.565 56.88 65.565L51.246 65.565C49.437 66.654 48.294 67.14 48.294 67.14L48.294 166.941L56.88 166.941Z" fill-rule="nonzero" fill="#D1426D"/>
		<path id="path" d="M137.286 140.805C137.07 140.805 136.845 140.796 136.62 140.778C132.66 140.418 129.744 136.917 130.104 132.957L133.281 98.082C133.641 94.122 137.16 91.215 141.102 91.566C145.062 91.926 147.978 95.427 147.618 99.387L144.441 134.262C144.108 137.997 140.967 140.805 137.286 140.805Z" fill-rule="nonzero" fill="#FFFFFF"/>
	</g>
	<defs>
		<clipPath id="clip3_23">
			<rect id="like" width="180.000000" height="180.000000" fill="white"/>
		</clipPath>
		<linearGradient id="paint_linear_3_24_0" x1="82.799980" y1="11.755714" x2="168.311462" y2="174.599976" gradientUnits="userSpaceOnUse">
			<stop stop-color="#FF5185"/>
			<stop offset="1.000000" stop-color="#D7537A" stop-opacity="0.796078"/>
		</linearGradient>
		<linearGradient id="paint_linear_3_25_0" x1="27.999987" y1="65.564995" x2="59.000008" y2="166.941025" gradientUnits="userSpaceOnUse">
			<stop stop-color="#FF5185"/>
			<stop offset="1.000000" stop-color="#FF5185" stop-opacity="0.854902"/>
		</linearGradient>
	</defs>
</svg>
