<svg width="121.050964" height="120.000000" viewBox="0 0 121.051 120" fill="none" xmlns="http://www.w3.org/2000/svg" xmlns:xlink="http://www.w3.org/1999/xlink">
	<desc>
			Created with Pixso.
	</desc>
	<path id="合并形状" d="M97.1223 44.2949L18.6734 77.5945C8.99857 54.8019 19.4595 28.5553 42.0385 18.9711C63.3741 9.91462 87.8956 18.9766 98.6945 39.2328L101.844 37.896L101.844 37.8962L98.6743 39.2415C99.0511 39.7858 99.2731 40.4463 99.2755 41.1576C99.2802 42.531 98.465 43.7089 97.2935 44.2252L98.3395 46.6893L98.3389 46.6895L97.293 44.2254C97.2369 44.2501 97.18 44.2733 97.1223 44.2949ZM98.3395 46.6893L104.471 44.0865L101.844 37.8962L101.844 37.8959L104.472 44.0864L98.3395 46.6895L98.3395 46.6893Z" clip-rule="evenodd" fill-rule="evenodd" fill="#6DD6FF" fill-opacity="1.000000"/>
	<mask id="path-1-inside-1" fill="white">
		<path id="合并形状" d="M99.3058 80.6039L99.31 80.6138C99.2814 80.6723 99.2527 80.7308 99.2239 80.7892C99.2117 80.8148 99.1991 80.8402 99.1862 80.8654C88.9744 101.467 64.5267 110.943 42.8581 102.069C20.0511 92.7297 8.95937 66.5992 18.084 43.7053L97.3695 76.1736C98.639 76.6536 99.5461 77.8863 99.551 79.3283C99.5525 79.7802 99.4653 80.2109 99.3058 80.6039Z" clip-rule="evenodd" fill-rule="evenodd" fill-opacity="0.000000"/>
	</mask>
	<path id="合并形状" d="M99.3058 80.6039L99.31 80.6138C99.2814 80.6723 99.2527 80.7308 99.2239 80.7892C99.2117 80.8148 99.1991 80.8402 99.1862 80.8654C88.9744 101.467 64.5267 110.943 42.8581 102.069C20.0511 92.7297 8.95937 66.5992 18.084 43.7053L97.3695 76.1736C98.639 76.6536 99.5461 77.8863 99.551 79.3283C99.5525 79.7802 99.4653 80.2109 99.3058 80.6039Z" clip-rule="evenodd" fill-rule="evenodd" fill="#2C83FF" fill-opacity="1.000000"/>
	<mask id="mask14_22051" mask-type="alpha" maskUnits="userSpaceOnUse" x="6.108696" y="19.738693" width="98.340240" height="99.500717">
		<path id="合并形状" d="M99.3046 80.6031L99.309 80.6134C89.1721 101.39 64.6138 110.979 42.8571 102.069C20.0502 92.7293 8.95842 66.5988 18.083 43.7049L97.381 76.1784C98.6437 76.6618 99.5447 77.891 99.5496 79.3281C99.5511 79.7797 99.464 80.2103 99.3046 80.6031Z" clip-rule="evenodd" fill-rule="evenodd" fill="#C4C4C4" fill-opacity="1.000000"/>
	</mask>
	<g mask="url(#mask14_22051)">
		<path id="Path" d="M98.6746 39.2409C99.0513 39.7851 99.2733 40.4456 99.2757 41.1569C99.2806 42.5935 98.3884 43.8164 97.1295 44.2915L18.6741 77.5939C8.9992 54.8013 19.4601 28.5547 42.0391 18.9705C63.3748 9.91402 87.8962 18.976 98.6952 39.2322L98.6746 39.2409L98.6746 39.2409Z" fill-rule="evenodd" fill="#1FAEFF"/>
	</g>
	<ellipse id="Oval" cx="69.726372" cy="40.570801" rx="5.931537" ry="5.987635" transform="rotate(-23 69.7264 40.5708)" fill="#1FAEFF"/>
	<defs/>
</svg>
